<svg version="1.1" xmlns="http://www.w3.org/2000/svg" viewBox="0 0 1442.9014482778261 1216.9471410405752" width="2885.8028965556523" height="2433.8942820811503">
  <!-- svg-source:excalidraw -->
  
  <defs>
    <style class="style-fonts">
      @font-face {
        font-family: "Virgil";
        src: url("https://excalidraw.com/Virgil.woff2");
      }
      @font-face {
        font-family: "Cascadia";
        src: url("https://excalidraw.com/Cascadia.woff2");
      }
    </style>
  </defs>
  <g stroke-linecap="round" transform="translate(514.2903662506463 512.8487865934579) rotate(0 94.18320426964124 95.6247839268296)"><path d="M160.96 26.82 C170.58 33.64, 177.38 45.91, 182.19 57.08 C187.01 68.25, 190.23 81.51, 189.84 93.84 C189.45 106.16, 184.58 119.3, 179.86 131.03 C175.15 142.77, 169.4 155.73, 161.54 164.26 C153.68 172.79, 143.85 177.91, 132.69 182.22 C121.54 186.53, 106.94 189.7, 94.61 190.11 C82.28 190.52, 69.62 188.85, 58.69 184.68 C47.75 180.51, 37.31 173.99, 28.99 165.1 C20.68 156.21, 13.76 142.46, 8.79 131.34 C3.83 120.23, -0.34 110.61, -0.77 98.43 C-1.21 86.24, 1.47 69.75, 6.19 58.25 C10.91 46.74, 19.13 37.95, 27.53 29.4 C35.94 20.85, 45.51 11.8, 56.61 6.95 C67.71 2.11, 82.19 0.24, 94.11 0.32 C106.03 0.4, 113.05 -5.51, 128.14 7.43 C143.23 20.38, 176.12 57.08, 184.66 77.97 C193.2 98.85, 180.37 132.55, 179.39 132.76 M115.8 1.69 C127.5 2.33, 141.11 10.17, 150.31 17.29 C159.5 24.42, 165.14 34.18, 170.98 44.45 C176.83 54.71, 182.52 66.59, 185.38 78.86 C188.24 91.14, 190.5 106.34, 188.15 118.11 C185.8 129.87, 178.3 140.16, 171.27 149.44 C164.24 158.71, 156.13 167.42, 145.98 173.76 C135.84 180.09, 121.93 185.07, 110.39 187.46 C98.85 189.84, 88.7 190.37, 76.75 188.08 C64.79 185.78, 48.76 180.37, 38.65 173.68 C28.54 166.98, 22.76 158.06, 16.08 147.89 C9.4 137.71, 0.83 125.19, -1.41 112.63 C-3.65 100.07, -0.13 84.77, 2.65 72.53 C5.42 60.29, 8.04 48.38, 15.24 39.19 C22.45 30, 35.61 23.37, 45.88 17.4 C56.14 11.43, 65.19 6.07, 76.82 3.38 C88.45 0.69, 109.8 1.39, 115.68 1.27 C121.55 1.15, 112.42 0.73, 112.07 2.68" stroke="#8cd000" stroke-width="2" fill="none"></path></g><g transform="translate(575.0759888702859 589.906637356128) rotate(0 33.29999923706055 18.44999999999999)"><text x="33.29999923706055" y="0" font-family="Virgil, Segoe UI Emoji" font-size="29.51999999999997px" fill="#8cd000" text-anchor="middle" style="white-space: pre;" direction="ltr" dominant-baseline="text-before-edge">Erde</text></g><g stroke-linecap="round" transform="translate(9.999999999999886 10) rotate(0 598.4735705202876 598.4735705202876)"><path d="M683.4 6.26 C714.41 1.19, 745.26 18.36, 775.2 27.72 C805.14 37.08, 835.28 48.61, 863.04 62.42 C890.8 76.24, 916.19 92.96, 941.74 110.59 C967.3 128.23, 993.85 146.91, 1016.36 168.25 C1038.88 189.6, 1058.12 213.42, 1076.82 238.66 C1095.53 263.9, 1114.17 291.58, 1128.59 319.69 C1143.01 347.8, 1153.17 378.09, 1163.34 407.29 C1173.51 436.49, 1184.26 464.63, 1189.62 494.88 C1194.98 525.12, 1195.23 557.31, 1195.48 588.76 C1195.73 620.21, 1195.11 652.76, 1191.12 683.59 C1187.13 714.43, 1180.87 744.23, 1171.54 773.79 C1162.2 803.36, 1149.32 832.37, 1135.1 860.97 C1120.89 889.56, 1104.42 919.31, 1086.23 945.35 C1068.03 971.4, 1047.23 995.4, 1025.93 1017.25 C1004.63 1039.09, 983.13 1058.04, 958.44 1076.42 C933.75 1094.8, 905.8 1113.01, 877.8 1127.54 C849.79 1142.06, 819.77 1153.29, 790.42 1163.58 C761.07 1173.86, 732.35 1183.78, 701.7 1189.24 C671.06 1194.7, 638.17 1196.01, 606.56 1196.33 C574.94 1196.65, 543.14 1195.56, 512.01 1191.16 C480.88 1186.76, 449.64 1179.44, 419.76 1169.92 C389.88 1160.4, 360.41 1148.1, 332.73 1134.06 C305.06 1120.01, 279.19 1103.53, 253.69 1085.63 C228.2 1067.73, 201.87 1047.86, 179.76 1026.67 C157.65 1005.49, 139.81 983.45, 121.04 958.54 C102.27 933.63, 81.67 904.86, 67.14 877.22 C52.61 849.58, 43.42 822.2, 33.83 792.72 C24.24 763.23, 15.53 731.11, 9.59 700.32 C3.66 669.54, -1.09 639.44, -1.78 607.99 C-2.46 576.53, 0.9 542.54, 5.46 511.6 C10.03 480.65, 16.5 451.94, 25.61 422.33 C34.72 392.72, 46.35 361.98, 60.14 333.94 C73.93 305.91, 90.03 279.81, 108.35 254.11 C126.66 228.41, 148.06 202.05, 170 179.75 C191.94 157.45, 215.16 138.75, 239.99 120.32 C264.83 101.9, 291.64 84.09, 318.99 69.19 C346.35 54.3, 374.68 41.02, 404.12 30.95 C433.56 20.88, 464.39 13.97, 495.63 8.76 C526.86 3.55, 554.49 -0.9, 591.55 -0.29 C628.61 0.31, 691.59 6.91, 717.97 12.4 C744.35 17.89, 751.82 22.85, 749.86 32.66" stroke="#8cd000" stroke-width="2.5" fill="none" stroke-dasharray="8 10"></path></g><g stroke-linecap="round" transform="translate(918.3973838254363 455.8017413059284) rotate(0 257.25203222619496 257.25203222619496)"><path d="M89.21 63.58 C100.99 47.83, 120.12 37.78, 138.45 28.25 C156.78 18.72, 178.94 11.38, 199.17 6.4 C219.4 1.42, 239.66 -1.73, 259.83 -1.64 C280 -1.56, 300.35 1.32, 320.2 6.89 C340.05 12.47, 360.78 22.2, 378.96 31.83 C397.13 41.47, 414.03 51.43, 429.26 64.69 C444.49 77.95, 458.71 94.34, 470.33 111.4 C481.95 128.45, 491.85 147.16, 498.98 167.02 C506.12 186.88, 511.09 209.77, 513.15 230.57 C515.21 251.36, 514.19 271.88, 511.35 291.78 C508.51 311.68, 503.11 331.12, 496.1 349.97 C489.1 368.82, 480.73 387.96, 469.32 404.86 C457.9 421.77, 443.56 437.79, 427.6 451.42 C411.64 465.05, 392.32 477.15, 373.55 486.64 C354.78 496.12, 334.55 503.79, 314.97 508.33 C295.39 512.88, 276.45 514.12, 256.07 513.9 C235.69 513.68, 212.79 511.95, 192.68 506.99 C172.56 502.03, 153.37 493.75, 135.36 484.16 C117.35 474.58, 99.51 463.34, 84.63 449.5 C69.76 435.66, 57.26 418.42, 46.1 401.12 C34.95 383.83, 25.24 365.08, 17.7 345.73 C10.17 326.39, 3.19 305.63, 0.91 285.05 C-1.38 264.48, 1.25 242.37, 4.02 222.28 C6.78 202.19, 10.61 183.36, 17.5 164.49 C24.39 145.63, 26.75 130.96, 45.36 109.08 C63.96 87.21, 107.25 48.23, 129.15 33.24 C151.05 18.26, 174.59 15.04, 176.77 19.19" stroke="#8cd000" stroke-width="2.5" fill="none" stroke-dasharray="8 10"></path></g><g stroke-linecap="round" transform="translate(1307.710548322052 892.4431728589955) rotate(0 24.792321784341652 24.969409797086996)"><path d="M12.97 4.75 C16.87 1.49, 22.6 -1.64, 27.46 -1.27 C32.32 -0.9, 38.25 3.02, 42.12 6.97 C46 10.91, 50.66 16.93, 50.71 22.4 C50.76 27.86, 45.77 35.21, 42.44 39.76 C39.11 44.31, 35.91 48.83, 30.74 49.69 C25.56 50.56, 16.05 47.74, 11.4 44.94 C6.75 42.14, 4.44 37.43, 2.82 32.88 C1.19 28.33, -2.79 23, 1.66 17.62 C6.11 12.24, 22.52 1.96, 29.49 0.62 C36.46 -0.72, 43.49 9.32, 43.51 9.59 M32.09 1.98 C36.46 3.74, 40.6 7.22, 43.15 11.91 C45.7 16.61, 47.41 25.15, 47.38 30.15 C47.35 35.16, 46.4 38.77, 42.95 41.95 C39.51 45.13, 32.46 49.06, 26.72 49.21 C20.97 49.36, 13.02 45.5, 8.48 42.88 C3.95 40.25, 0.77 38.44, -0.5 33.45 C-1.77 28.46, -2.13 17.72, 0.85 12.94 C3.84 8.16, 12.19 7.07, 17.42 4.78 C22.64 2.48, 30.21 0, 32.23 -0.84 C34.24 -1.67, 30.12 -1.25, 29.51 -0.24" stroke="#8cd000" stroke-width="4" fill="none"></path></g></svg>