<svg id="Ebene_1" data-name="Ebene 1" xmlns="http://www.w3.org/2000/svg" viewBox="0 0 240.95 88.35"><defs><style>.cls-1{fill:#8cd000;}.cls-2{fill:#8cd000;}</style></defs><title>PHK_2018_Logo_V1_FARBE</title><path class="cls-1" d="M324.62,273.87H300v68.77h4.94A19.63,19.63,0,0,1,324.55,323a24.55,24.55,0,1,0,.07-49.1Zm0,44.27a19.64,19.64,0,1,1,19.64-19.64,19.64,19.64,0,0,1-19.64,19.64Z" transform="translate(-300 -254.28)"/><path class="cls-1" d="M403.12,298.5a24.57,24.57,0,0,0-24.57-24.56,19.66,19.66,0,0,1-19.66-19.65H354V323l4.91,0V298.5a19.64,19.64,0,0,1,39.28,0V323h4.89l0-24.47Z" transform="translate(-300 -254.28)"/><path class="cls-2" d="M415.75,298v-3.36h1.48a3.27,3.27,0,0,0,2-.57,2,2,0,0,0,.74-1.71,2.42,2.42,0,0,0-.2-1,1.71,1.71,0,0,0-.55-.67,2.38,2.38,0,0,0-.9-.38,6.1,6.1,0,0,0-1.19-.11h-2V298Zm0-7.37h1.3a3.57,3.57,0,0,1,1.81.37,1.47,1.47,0,0,1,.6,1.36,1.61,1.61,0,0,1-.58,1.39,3.05,3.05,0,0,1-1.78.42h-1.35v-3.54Zm8.13,7.24a5.82,5.82,0,0,0,.94-.61h0l0,.74h.45v-3.65a3.91,3.91,0,0,0-.09-.86,1.89,1.89,0,0,0-.31-.69,1.43,1.43,0,0,0-.56-.47,1.8,1.8,0,0,0-.84-.18,3,3,0,0,0-.67.08,3.4,3.4,0,0,0-.59.19,3.75,3.75,0,0,0-.49.23l-.38.24.24.39a5.12,5.12,0,0,1,.77-.44,2.44,2.44,0,0,1,1.05-.22,1.31,1.31,0,0,1,.69.16,1.15,1.15,0,0,1,.41.41,1.43,1.43,0,0,1,.2.59,3.45,3.45,0,0,1,.05.64,8,8,0,0,0-2.8.71,1.56,1.56,0,0,0-.88,1.44,1.65,1.65,0,0,0,.13.7,1.3,1.3,0,0,0,.36.49,1.55,1.55,0,0,0,.52.29,2.2,2.2,0,0,0,.64.09,2.28,2.28,0,0,0,1.08-.27Zm-1.45-.24a1.22,1.22,0,0,1-.39-.21.85.85,0,0,1-.26-.35,1.15,1.15,0,0,1-.1-.52,1.29,1.29,0,0,1,.16-.61,1.47,1.47,0,0,1,.53-.48,3.53,3.53,0,0,1,1-.37,12.32,12.32,0,0,1,1.48-.26v1.93a5.09,5.09,0,0,1-1,.69,2,2,0,0,1-1,.24,1.73,1.73,0,0,1-.47-.06Zm.3-6.86a.41.41,0,0,0,.13-.32.4.4,0,0,0-.13-.31.46.46,0,0,0-.62,0,.4.4,0,0,0-.13.31.41.41,0,0,0,.13.32.46.46,0,0,0,.62,0Zm2.12,0a.44.44,0,0,0,.12-.32.43.43,0,0,0-.12-.31.44.44,0,0,0-.32-.12.41.41,0,0,0-.43.43.44.44,0,0,0,.12.32.43.43,0,0,0,.31.12.44.44,0,0,0,.32-.12Zm5.6,7.1a3.43,3.43,0,0,0,.82-.61h0l.05.74h.45v-8.54h-.52v2.35l0,1a4.13,4.13,0,0,0-.81-.51,2.14,2.14,0,0,0-.91-.19,2.32,2.32,0,0,0-1,.21,2.59,2.59,0,0,0-.81.6,3,3,0,0,0-.55.95,3.77,3.77,0,0,0-.2,1.25,3.38,3.38,0,0,0,.64,2.22,2.13,2.13,0,0,0,1.72.76,2,2,0,0,0,1-.27Zm-1.77-.38a1.58,1.58,0,0,1-.58-.51,2.41,2.41,0,0,1-.37-.79,4.1,4.1,0,0,1-.12-1,3.22,3.22,0,0,1,.15-1,2.81,2.81,0,0,1,.42-.81,2,2,0,0,1,.64-.54,1.69,1.69,0,0,1,.8-.19,2.13,2.13,0,0,1,.81.16,3,3,0,0,1,.85.57v3.39a4.45,4.45,0,0,1-.89.7,1.81,1.81,0,0,1-.9.24,1.64,1.64,0,0,1-.81-.19Zm7.58.38a5.5,5.5,0,0,0,.95-.61h0l.05.74h.45v-3.65a3.91,3.91,0,0,0-.09-.86,2.08,2.08,0,0,0-.31-.69,1.43,1.43,0,0,0-.56-.47,1.8,1.8,0,0,0-.84-.18,3,3,0,0,0-.67.08,3.4,3.4,0,0,0-.59.19,4.67,4.67,0,0,0-.5.23l-.37.24.24.39a5.12,5.12,0,0,1,.77-.44,2.44,2.44,0,0,1,1.05-.22,1.31,1.31,0,0,1,.69.16,1.15,1.15,0,0,1,.41.41,1.59,1.59,0,0,1,.2.59,4.6,4.6,0,0,1,.05.64,8,8,0,0,0-2.8.71,1.56,1.56,0,0,0-.88,1.44,1.65,1.65,0,0,0,.13.7,1.19,1.19,0,0,0,.35.49,1.6,1.6,0,0,0,.53.29,2.28,2.28,0,0,0,1.71-.18Zm-1.45-.24a1.28,1.28,0,0,1-.38-.21.85.85,0,0,1-.26-.35,1.15,1.15,0,0,1-.1-.52,1.29,1.29,0,0,1,.16-.61,1.47,1.47,0,0,1,.53-.48,3.53,3.53,0,0,1,1-.37,12,12,0,0,1,1.48-.26v1.93a5.12,5.12,0,0,1-1,.69,2,2,0,0,1-1,.24,1.84,1.84,0,0,1-.47-.06Zm8,3a2.7,2.7,0,0,0,.85-.42,1.85,1.85,0,0,0,.54-.62,1.49,1.49,0,0,0,.19-.72,1.12,1.12,0,0,0-.45-1,2.55,2.55,0,0,0-1.42-.32h-1.23a1.25,1.25,0,0,1-.87-.22.69.69,0,0,1-.22-.53.73.73,0,0,1,.14-.47,2.11,2.11,0,0,1,.32-.35,1.7,1.7,0,0,0,.46.18,2.12,2.12,0,0,0,.49.06,2,2,0,0,0,.78-.15,1.91,1.91,0,0,0,.63-.41,1.87,1.87,0,0,0,.42-.64,1.92,1.92,0,0,0,.16-.81,1.86,1.86,0,0,0-.18-.82,1.8,1.8,0,0,0-.45-.61h1.33v-.44h-1.94a1.21,1.21,0,0,0-.32-.1,1.88,1.88,0,0,0-.43-.05,2,2,0,0,0-.78.15,1.87,1.87,0,0,0-.64.42,1.81,1.81,0,0,0-.43.63,2.17,2.17,0,0,0-.16.81,2,2,0,0,0,.22.93,2.41,2.41,0,0,0,.5.64v.05a1.89,1.89,0,0,0-.41.4,1,1,0,0,0-.21.64,1.06,1.06,0,0,0,.14.56,1.23,1.23,0,0,0,.36.36v.05a2.34,2.34,0,0,0-.62.64,1.37,1.37,0,0,0,.4,1.89,3.08,3.08,0,0,0,1.72.42,3.5,3.5,0,0,0,1.11-.16ZM441,295.67a1.39,1.39,0,0,1-.48-.32,1.91,1.91,0,0,1-.32-.51,1.88,1.88,0,0,1,0-1.32,1.47,1.47,0,0,1,.79-.81,1.53,1.53,0,0,1,1.14,0,1.31,1.31,0,0,1,.47.32,1.48,1.48,0,0,1,.32.5,1.71,1.71,0,0,1,.12.65,1.76,1.76,0,0,1-.12.66,1.91,1.91,0,0,1-.32.51,1.36,1.36,0,0,1-.47.32,1.39,1.39,0,0,1-1.13,0Zm-.7,4.33a1,1,0,0,1-.5-.86,1.2,1.2,0,0,1,.18-.62,1.84,1.84,0,0,1,.57-.58,2.26,2.26,0,0,0,.43.07,1.74,1.74,0,0,0,.29,0h1.22a2,2,0,0,1,1,.2.7.7,0,0,1,.34.67,1,1,0,0,1-.15.53,1.49,1.49,0,0,1-.42.45,2.1,2.1,0,0,1-.67.33,2.93,2.93,0,0,1-.86.13,2.45,2.45,0,0,1-1.41-.34Zm8.32-2a2.27,2.27,0,0,0,.82-.58,2.89,2.89,0,0,0,.56-.93,3.56,3.56,0,0,0,.21-1.27,3.66,3.66,0,0,0-.21-1.28,2.73,2.73,0,0,0-.56-.94,2.16,2.16,0,0,0-.82-.58,2.37,2.37,0,0,0-1.95,0,2.2,2.2,0,0,0-.81.58,2.73,2.73,0,0,0-.56.94,3.66,3.66,0,0,0-.21,1.28,3.56,3.56,0,0,0,.21,1.27,2.89,2.89,0,0,0,.56.93,2.32,2.32,0,0,0,.81.58,2.48,2.48,0,0,0,1.95,0Zm-1.77-.45a1.86,1.86,0,0,1-.64-.51,2.43,2.43,0,0,1-.42-.8,3.58,3.58,0,0,1,0-2.05,2.59,2.59,0,0,1,.42-.81,1.88,1.88,0,0,1,.64-.52,1.76,1.76,0,0,1,.79-.18,1.85,1.85,0,0,1,.81.18,1.88,1.88,0,0,1,.64.52,2.59,2.59,0,0,1,.42.81,3.58,3.58,0,0,1,0,2.05,2.43,2.43,0,0,1-.42.8,1.86,1.86,0,0,1-.64.51,1.73,1.73,0,0,1-.81.19,1.65,1.65,0,0,1-.79-.19Zm8.08,3.09a2.7,2.7,0,0,0,.85-.42,1.85,1.85,0,0,0,.54-.62,1.49,1.49,0,0,0,.19-.72,1.12,1.12,0,0,0-.45-1,2.55,2.55,0,0,0-1.42-.32h-1.23a1.24,1.24,0,0,1-.86-.22.7.7,0,0,1-.23-.53.79.79,0,0,1,.14-.47,2.11,2.11,0,0,1,.32-.35,1.7,1.7,0,0,0,.46.18,2.18,2.18,0,0,0,.49.06,2,2,0,0,0,.78-.15,1.91,1.91,0,0,0,.63-.41,1.87,1.87,0,0,0,.42-.64,1.92,1.92,0,0,0,.16-.81,1.86,1.86,0,0,0-.18-.82,1.8,1.8,0,0,0-.45-.61h1.33v-.44h-1.94a1.1,1.1,0,0,0-.32-.1,1.88,1.88,0,0,0-.43-.05,2.08,2.08,0,0,0-.78.15,1.87,1.87,0,0,0-.64.42,2,2,0,0,0-.43.63,2.16,2.16,0,0,0-.15.81,1.88,1.88,0,0,0,.22.93,2.21,2.21,0,0,0,.49.64v.05a1.89,1.89,0,0,0-.41.4,1,1,0,0,0-.21.64,1.06,1.06,0,0,0,.14.56,1.23,1.23,0,0,0,.36.36v.05a2.34,2.34,0,0,0-.62.64,1.36,1.36,0,0,0,.41,1.89,3,3,0,0,0,1.71.42,3.5,3.5,0,0,0,1.11-.16Zm-1.76-4.93a1.39,1.39,0,0,1-.48-.32,1.91,1.91,0,0,1-.32-.51,1.88,1.88,0,0,1,0-1.32,1.47,1.47,0,0,1,.79-.81,1.53,1.53,0,0,1,1.14,0,1.31,1.31,0,0,1,.47.32,1.48,1.48,0,0,1,.32.5,1.71,1.71,0,0,1,.12.65,1.76,1.76,0,0,1-.12.66,1.91,1.91,0,0,1-.32.51,1.36,1.36,0,0,1-.47.32,1.39,1.39,0,0,1-1.13,0Zm-.7,4.33a1,1,0,0,1-.49-.86,1.19,1.19,0,0,1,.17-.62,1.84,1.84,0,0,1,.57-.58,2.4,2.4,0,0,0,.43.07,1.74,1.74,0,0,0,.29,0h1.22a2,2,0,0,1,1,.2.7.7,0,0,1,.34.67,1,1,0,0,1-.15.53,1.49,1.49,0,0,1-.42.45,2,2,0,0,1-.67.33,2.93,2.93,0,0,1-.86.13,2.45,2.45,0,0,1-1.41-.34Zm5.92-2v-5.7h-.52V298Zm.09-7.21a.46.46,0,0,0,.14-.34.47.47,0,0,0-.14-.35.49.49,0,0,0-.34-.12.5.5,0,0,0-.34.12.46.46,0,0,0-.13.35.45.45,0,0,0,.13.34.51.51,0,0,0,.34.13.49.49,0,0,0,.34-.13Zm4.43,7.22a1.86,1.86,0,0,0,.6-.35,1.55,1.55,0,0,0,.38-.51,1.58,1.58,0,0,0,.12-.61,1.28,1.28,0,0,0-.17-.7,1.6,1.6,0,0,0-.43-.47,3.41,3.41,0,0,0-.6-.32l-.66-.26-.5-.19a2.52,2.52,0,0,1-.43-.24.86.86,0,0,1-.3-.3.7.7,0,0,1-.12-.42,1,1,0,0,1,.08-.38.78.78,0,0,1,.24-.33,1.22,1.22,0,0,1,.4-.24,2.11,2.11,0,0,1,1.33.06,3.13,3.13,0,0,1,.6.37l.29-.37a2.57,2.57,0,0,0-.74-.43,2.51,2.51,0,0,0-.89-.17,2.39,2.39,0,0,0-.79.12,1.72,1.72,0,0,0-.58.33,1.45,1.45,0,0,0-.47,1.07,1.14,1.14,0,0,0,.16.63,1.6,1.6,0,0,0,.42.44,2.53,2.53,0,0,0,.59.31l.65.25.49.2a4.79,4.79,0,0,1,.45.25,1.19,1.19,0,0,1,.32.35.88.88,0,0,1,.13.46,1.1,1.1,0,0,1-.34.79,1.38,1.38,0,0,1-1,.34,2.28,2.28,0,0,1-1-.21,4.43,4.43,0,0,1-.79-.51l-.3.39a3.49,3.49,0,0,0,.91.55,3,3,0,0,0,1.18.23,2.31,2.31,0,0,0,.82-.13Zm5.94-.08a3.42,3.42,0,0,0,.82-.54l-.27-.36a3.07,3.07,0,0,1-.69.46,1.79,1.79,0,0,1-.84.19,2,2,0,0,1-1.5-.7,2.42,2.42,0,0,1-.41-.8,3.31,3.31,0,0,1-.15-1,3.05,3.05,0,0,1,.16-1,2.44,2.44,0,0,1,.44-.81,1.92,1.92,0,0,1,.65-.52,1.85,1.85,0,0,1,.81-.18,1.54,1.54,0,0,1,.75.17,2.4,2.4,0,0,1,.61.43l.31-.37a3.52,3.52,0,0,0-.69-.48,2.07,2.07,0,0,0-1-.22,2.38,2.38,0,0,0-1,.21,2.24,2.24,0,0,0-.82.58,2.94,2.94,0,0,0-.58.94,3.66,3.66,0,0,0-.21,1.28,3.8,3.8,0,0,0,.2,1.27,2.84,2.84,0,0,0,.54.93,2.46,2.46,0,0,0,.82.58,2.7,2.7,0,0,0,1,.2,2.33,2.33,0,0,0,1-.21Zm2.83.07v-4.3a5.07,5.07,0,0,1,.94-.8,1.63,1.63,0,0,1,.92-.27,1.14,1.14,0,0,1,1,.43,2.41,2.41,0,0,1,.3,1.35V298h.52v-3.66a2.72,2.72,0,0,0-.41-1.65,1.56,1.56,0,0,0-1.31-.54,2,2,0,0,0-1.06.29,5.56,5.56,0,0,0-.91.75v-3.73h-.52V298Zm9.06,0a5.26,5.26,0,0,0,.75-.38l-.21-.4a2.55,2.55,0,0,1-.69.37,2.25,2.25,0,0,1-.84.14,2.07,2.07,0,0,1-.88-.18,2.13,2.13,0,0,1-.67-.51,2.42,2.42,0,0,1-.44-.79,3.42,3.42,0,0,1-.16-1h4.11a1.49,1.49,0,0,0,0-.21v-.22a2.93,2.93,0,0,0-.58-1.95,2,2,0,0,0-1.6-.69,2.1,2.1,0,0,0-.92.21,2.44,2.44,0,0,0-.8.6,2.9,2.9,0,0,0-.56.94,3.54,3.54,0,0,0-.21,1.26,3.45,3.45,0,0,0,.21,1.25,2.85,2.85,0,0,0,.57.94,2.22,2.22,0,0,0,.83.59,2.74,2.74,0,0,0,1,.2,2.59,2.59,0,0,0,1-.18Zm-2.92-4.08a2.21,2.21,0,0,1,.44-.69,1.93,1.93,0,0,1,.6-.44,1.65,1.65,0,0,1,.7-.14,1.51,1.51,0,0,1,1.22.54,2.51,2.51,0,0,1,.45,1.64h-3.63a2.83,2.83,0,0,1,.22-.91ZM486,298V294.1h4.2V298h.54v-7.83h-.54v3.43H486v-3.43h-.55V298ZM496,298a2.46,2.46,0,0,0,.82-.58,2.86,2.86,0,0,0,.55-.93,3.56,3.56,0,0,0,.21-1.27,3.66,3.66,0,0,0-.21-1.28,2.72,2.72,0,0,0-.55-.94,2.32,2.32,0,0,0-.82-.58,2.4,2.4,0,0,0-1-.21,2.37,2.37,0,0,0-1,.21,2.2,2.2,0,0,0-.81.58,2.73,2.73,0,0,0-.56.94,3.66,3.66,0,0,0-.21,1.28,3.56,3.56,0,0,0,.21,1.27,2.89,2.89,0,0,0,.56.93,2.32,2.32,0,0,0,.81.58,2.53,2.53,0,0,0,1,.2,2.56,2.56,0,0,0,1-.2Zm-1.78-.45a1.86,1.86,0,0,1-.64-.51,2.88,2.88,0,0,1-.42-.8,3.58,3.58,0,0,1,0-2.05,3.09,3.09,0,0,1,.42-.81,1.88,1.88,0,0,1,.64-.52,1.8,1.8,0,0,1,.8-.18,1.84,1.84,0,0,1,.8.18,1.88,1.88,0,0,1,.64.52,2.59,2.59,0,0,1,.42.81,3.36,3.36,0,0,1,0,2.05,2.43,2.43,0,0,1-.42.8,1.86,1.86,0,0,1-.64.51,1.71,1.71,0,0,1-.8.19,1.69,1.69,0,0,1-.8-.19Zm8.25.44a3.42,3.42,0,0,0,.82-.54l-.28-.36a3,3,0,0,1-.68.46,2,2,0,0,1-1.69,0,1.8,1.8,0,0,1-.65-.51,2.43,2.43,0,0,1-.42-.8,3.47,3.47,0,0,1,0-2.05,2.86,2.86,0,0,1,.44-.81,2.06,2.06,0,0,1,.66-.52,1.85,1.85,0,0,1,.81-.18,1.54,1.54,0,0,1,.75.17,2.81,2.81,0,0,1,.61.43l.3-.37a3.17,3.17,0,0,0-.68-.48,2.1,2.1,0,0,0-1-.22,2.38,2.38,0,0,0-1,.21,2.27,2.27,0,0,0-.83.58,2.75,2.75,0,0,0-.57.94,3.66,3.66,0,0,0-.21,1.28,3.81,3.81,0,0,0,.19,1.27,2.86,2.86,0,0,0,.55.93,2.36,2.36,0,0,0,.82.58,2.66,2.66,0,0,0,1,.2,2.39,2.39,0,0,0,1-.21Zm2.82.07v-4.3a5.42,5.42,0,0,1,.94-.8,1.68,1.68,0,0,1,.93-.27,1.12,1.12,0,0,1,1,.43,2.32,2.32,0,0,1,.31,1.35V298h.52v-3.66a2.65,2.65,0,0,0-.42-1.65,1.53,1.53,0,0,0-1.3-.54,2,2,0,0,0-1.06.29,6.06,6.06,0,0,0-.92.75v-3.73h-.52V298Zm8.07,0a1.91,1.91,0,0,0,.61-.35,1.52,1.52,0,0,0,.37-.51,1.42,1.42,0,0,0,.13-.61,1.37,1.37,0,0,0-.17-.7,1.6,1.6,0,0,0-.43-.47,3.41,3.41,0,0,0-.6-.32l-.67-.26-.49-.19a2.63,2.63,0,0,1-.44-.24,1.07,1.07,0,0,1-.3-.3.77.77,0,0,1-.11-.42.87.87,0,0,1,.08-.38.86.86,0,0,1,.23-.33,1.22,1.22,0,0,1,.4-.24,1.91,1.91,0,0,1,.57-.08,1.75,1.75,0,0,1,.76.14,2.92,2.92,0,0,1,.61.37l.28-.37a2.33,2.33,0,0,0-.74-.43,2.46,2.46,0,0,0-.88-.17,2.3,2.3,0,0,0-.79.12,1.72,1.72,0,0,0-.58.33,1.33,1.33,0,0,0-.36.49,1.43,1.43,0,0,0-.12.58,1.23,1.23,0,0,0,.16.63,1.5,1.5,0,0,0,.43.44,2.53,2.53,0,0,0,.59.31l.64.25.5.2a3.63,3.63,0,0,1,.44.25,1.22,1.22,0,0,1,.33.35.88.88,0,0,1,.12.46,1.06,1.06,0,0,1-.34.79,1.34,1.34,0,0,1-1,.34,2.32,2.32,0,0,1-1-.21,4.74,4.74,0,0,1-.78-.51l-.31.39a3.56,3.56,0,0,0,.92.55,2.94,2.94,0,0,0,1.17.23,2.31,2.31,0,0,0,.82-.13Zm6-.08a3.18,3.18,0,0,0,.81-.54l-.27-.36a3,3,0,0,1-.68.46,2,2,0,0,1-1.69,0,1.8,1.8,0,0,1-.65-.51,2.43,2.43,0,0,1-.42-.8,3.47,3.47,0,0,1,0-2.05,2.86,2.86,0,0,1,.44-.81,2.06,2.06,0,0,1,.66-.52,1.85,1.85,0,0,1,.81-.18,1.54,1.54,0,0,1,.75.17,2.81,2.81,0,0,1,.61.43l.31-.37a3.52,3.52,0,0,0-.69-.48,2.13,2.13,0,0,0-1-.22,2.38,2.38,0,0,0-1,.21,2.27,2.27,0,0,0-.83.58,2.75,2.75,0,0,0-.57.94,3.66,3.66,0,0,0-.21,1.28,3.81,3.81,0,0,0,.19,1.27,2.86,2.86,0,0,0,.55.93,2.36,2.36,0,0,0,.82.58,2.63,2.63,0,0,0,1,.2,2.39,2.39,0,0,0,1-.21Zm2.82.07v-4.3a5.42,5.42,0,0,1,.94-.8,1.68,1.68,0,0,1,.93-.27,1.12,1.12,0,0,1,1,.43,2.32,2.32,0,0,1,.31,1.35V298h.52v-3.66a2.65,2.65,0,0,0-.42-1.65,1.53,1.53,0,0,0-1.3-.54,2,2,0,0,0-1.06.29,5.61,5.61,0,0,0-.92.75v-3.73h-.52V298Zm8.39-.15a4.07,4.07,0,0,0,.88-.8h0l0,.95h.45v-5.7h-.53v4.2a4.64,4.64,0,0,1-.91.89,1.69,1.69,0,0,1-.93.28,1.12,1.12,0,0,1-1-.44,2.4,2.4,0,0,1-.31-1.35v-3.58h-.52V296a2.67,2.67,0,0,0,.42,1.65,1.55,1.55,0,0,0,1.3.53,2,2,0,0,0,1.06-.29Zm4.39.27.16,0-.09-.42-.14,0h-.08a.2.2,0,0,1-.17-.09.43.43,0,0,1-.08-.28v-7.85h-.52v7.78c0,.6.23.9.7.9a.72.72,0,0,0,.22,0ZM540,298a4.9,4.9,0,0,0,.76-.38l-.22-.4a2.55,2.55,0,0,1-.69.37,2.25,2.25,0,0,1-.84.14,2.1,2.1,0,0,1-.88-.18,2.08,2.08,0,0,1-1.1-1.3,3.11,3.11,0,0,1-.17-1h4.11a.76.76,0,0,0,0-.21v-.22a2.93,2.93,0,0,0-.59-1.95,2,2,0,0,0-1.6-.69,2.1,2.1,0,0,0-.92.21,2.44,2.44,0,0,0-.8.6,2.9,2.9,0,0,0-.56.94,3.78,3.78,0,0,0-.21,1.26,3.68,3.68,0,0,0,.21,1.25,2.85,2.85,0,0,0,.57.94,2.3,2.3,0,0,0,.83.59,2.78,2.78,0,0,0,1,.2,2.59,2.59,0,0,0,1-.18ZM537,293.9a2.21,2.21,0,0,1,.44-.69,1.93,1.93,0,0,1,.6-.44,1.65,1.65,0,0,1,.7-.14,1.5,1.5,0,0,1,1.22.54,2.51,2.51,0,0,1,.46,1.64h-3.64a2.83,2.83,0,0,1,.22-.91Z" transform="translate(-300 -254.28)"/><path class="cls-2" d="M418.8,283.16a2.16,2.16,0,0,0,.84-.51,2.5,2.5,0,0,0,.59-1,4.38,4.38,0,0,0,.23-1.52v-4.82H420v4.76a4,4,0,0,1-.18,1.3,2.25,2.25,0,0,1-.47.84,1.6,1.6,0,0,1-.68.44,2.37,2.37,0,0,1-.81.13,2.3,2.3,0,0,1-.79-.13,1.6,1.6,0,0,1-.66-.44,2.39,2.39,0,0,1-.46-.84,4.27,4.27,0,0,1-.17-1.3v-4.76h-.55v4.82a4.66,4.66,0,0,0,.22,1.52,2.62,2.62,0,0,0,.59,1,2.13,2.13,0,0,0,.85.51,3.17,3.17,0,0,0,1,.15,3.3,3.3,0,0,0,1-.15Zm4.15,0v-4.3a6,6,0,0,1,.94-.81,1.76,1.76,0,0,1,.93-.26,1.12,1.12,0,0,1,1,.43,2.32,2.32,0,0,1,.31,1.35v3.59h.52v-3.66a2.63,2.63,0,0,0-.42-1.65,1.53,1.53,0,0,0-1.3-.54,2,2,0,0,0-1.06.29,5.44,5.44,0,0,0-.9.73h0l-.05-.88h-.45v5.71Zm6.21,0v-5.71h-.53v5.71Zm.09-7.21a.45.45,0,0,0,.13-.34.46.46,0,0,0-.13-.35.52.52,0,0,0-.34-.12.49.49,0,0,0-.34.12.47.47,0,0,0-.14.35.46.46,0,0,0,.14.34.49.49,0,0,0,.34.13.53.53,0,0,0,.34-.13Zm4.11,7.21,2.12-5.71h-.54L433.66,281c-.1.28-.19.56-.29.83l-.29.81H433c-.09-.26-.18-.53-.29-.81s-.19-.55-.28-.83l-1.28-3.58h-.57l2.13,5.71Zm6.61,0a6.73,6.73,0,0,0,.76-.38l-.22-.4a2.55,2.55,0,0,1-.69.37,2.47,2.47,0,0,1-.84.14,1.93,1.93,0,0,1-.88-.19,1.87,1.87,0,0,1-.67-.51,2.37,2.37,0,0,1-.44-.78,3.54,3.54,0,0,1-.16-1h4.11a1.64,1.64,0,0,0,0-.22V280a2.93,2.93,0,0,0-.58-1.95,2,2,0,0,0-1.6-.69,2.1,2.1,0,0,0-.92.21,2.56,2.56,0,0,0-.8.59,3.06,3.06,0,0,0-.56.95,3.54,3.54,0,0,0-.21,1.26,3.49,3.49,0,0,0,.21,1.25,2.85,2.85,0,0,0,.57.94,2.33,2.33,0,0,0,.83.59,2.74,2.74,0,0,0,1,.2,2.59,2.59,0,0,0,1-.18ZM437.05,279a2.28,2.28,0,0,1,.44-.68,1.93,1.93,0,0,1,.6-.44,1.66,1.66,0,0,1,.7-.15,1.51,1.51,0,0,1,1.22.54,2.54,2.54,0,0,1,.45,1.65h-3.63a2.89,2.89,0,0,1,.22-.92Zm6.09,4.13v-3.89a2.7,2.7,0,0,1,.75-1.13,1.33,1.33,0,0,1,.8-.33l.28,0a1.17,1.17,0,0,1,.25.08l.12-.48a.83.83,0,0,0-.28-.09,1.23,1.23,0,0,0-.29,0,1.42,1.42,0,0,0-.92.33,2.89,2.89,0,0,0-.7.87h0l0-1.06h-.45v5.71Zm5.76,0a1.91,1.91,0,0,0,.61-.35,1.52,1.52,0,0,0,.37-.51,1.62,1.62,0,0,0,.12-.61,1.37,1.37,0,0,0-.16-.7,1.64,1.64,0,0,0-.44-.47,2.82,2.82,0,0,0-.6-.32l-.66-.26-.49-.2a1.83,1.83,0,0,1-.44-.23,1.42,1.42,0,0,1-.3-.3.73.73,0,0,1-.11-.42,1,1,0,0,1,.07-.38,1,1,0,0,1,.24-.34,1.4,1.4,0,0,1,.4-.23,1.62,1.62,0,0,1,.57-.09,1.78,1.78,0,0,1,.76.15,3.76,3.76,0,0,1,.61.36l.28-.36a2.33,2.33,0,0,0-.74-.43,2.51,2.51,0,0,0-.89-.17,2.39,2.39,0,0,0-.79.12,1.78,1.78,0,0,0-.57.33,1.38,1.38,0,0,0-.36.48,1.52,1.52,0,0,0-.12.59,1.23,1.23,0,0,0,.16.63,1.75,1.75,0,0,0,.42.44,3.29,3.29,0,0,0,.59.31l.65.25.49.2a3.25,3.25,0,0,1,.45.25,1.19,1.19,0,0,1,.32.35.8.8,0,0,1,.13.46,1.08,1.08,0,0,1-.34.79,1.34,1.34,0,0,1-1,.34,2.29,2.29,0,0,1-1-.21,3.66,3.66,0,0,1-.78-.52l-.31.4a4,4,0,0,0,.91.55,3,3,0,0,0,1.18.23,2.31,2.31,0,0,0,.82-.13Zm3.18,0v-5.71h-.53v5.71Zm.08-7.21a.42.42,0,0,0,.14-.34.43.43,0,0,0-.14-.35.48.48,0,0,0-.33-.12.49.49,0,0,0-.34.12.47.47,0,0,0-.14.35.46.46,0,0,0,.14.34.49.49,0,0,0,.34.13.49.49,0,0,0,.33-.13Zm4.16,7.29a4.13,4.13,0,0,0,.5-.15l-.14-.43a1.6,1.6,0,0,1-.35.12,1.23,1.23,0,0,1-.36.06,1.08,1.08,0,0,1-.48-.09.65.65,0,0,1-.29-.25.84.84,0,0,1-.15-.38,2.49,2.49,0,0,1,0-.49v-3.72h1.65v-.46H455v-1.65h-.46l-.07,1.65-.9.05v.41h.89v3.67a3.14,3.14,0,0,0,.07.7,1.43,1.43,0,0,0,.23.55,1.11,1.11,0,0,0,.44.35,1.71,1.71,0,0,0,.69.12,1.76,1.76,0,0,0,.42-.06Zm2.73,2.36a2,2,0,0,0,.54-.42,2.92,2.92,0,0,0,.4-.61,4.7,4.7,0,0,0,.29-.7l2.26-6.42H462l-1.23,3.59c-.08.24-.16.5-.25.79s-.18.55-.27.8h-.05c-.11-.25-.22-.52-.33-.8s-.2-.55-.29-.79l-1.37-3.59h-.57l2.34,5.81-.16.5a3.07,3.07,0,0,1-.57,1.08,1.1,1.1,0,0,1-.89.43,1,1,0,0,1-.25,0l-.21-.06-.12.46a1.37,1.37,0,0,0,.58.12,1.39,1.39,0,0,0,.68-.16Zm9.57-2.5a2.61,2.61,0,0,0,.82-.58,3,3,0,0,0,.56-.94,3.74,3.74,0,0,0,.2-1.26,3.91,3.91,0,0,0-.2-1.28,2.8,2.8,0,0,0-.56-.94,2.49,2.49,0,0,0-.82-.59,2.56,2.56,0,0,0-1-.2,2.53,2.53,0,0,0-1,.2,2.35,2.35,0,0,0-.81.59,2.8,2.8,0,0,0-.56.94,3.66,3.66,0,0,0-.21,1.28,3.5,3.5,0,0,0,.21,1.26,3,3,0,0,0,.56.94,2.46,2.46,0,0,0,.81.58,2.53,2.53,0,0,0,1,.2,2.56,2.56,0,0,0,1-.2Zm-1.78-.45a1.82,1.82,0,0,1-.63-.51,2.78,2.78,0,0,1-.43-.8,3.31,3.31,0,0,1-.15-1,3.39,3.39,0,0,1,.15-1,2.92,2.92,0,0,1,.43-.8,1.85,1.85,0,0,1,.63-.52,1.8,1.8,0,0,1,.8-.18,1.84,1.84,0,0,1,.8.18,1.88,1.88,0,0,1,.64.52,2.65,2.65,0,0,1,.42.8,3.11,3.11,0,0,1,.16,1,3,3,0,0,1-.16,1,2.54,2.54,0,0,1-.42.8,1.86,1.86,0,0,1-.64.51,1.71,1.71,0,0,1-.8.19,1.69,1.69,0,0,1-.8-.19Zm5.69.51v-5.25h1.32v-.46h-1.32v-1.23a1.71,1.71,0,0,1,.22-1,.74.74,0,0,1,.67-.34,2.09,2.09,0,0,1,.34,0,1.37,1.37,0,0,1,.35.13l.14-.43a2,2,0,0,0-.83-.19,1.27,1.27,0,0,0-1,.43,1.9,1.9,0,0,0-.37,1.28v1.27l-.79.05v.41H472v5.25Zm9.36,0v-.48H478v-3.44h3.14v-.48H478v-3h3.74v-.47h-4.29v7.83Zm4.52-.13a3.91,3.91,0,0,0,.81-.61h0l.05.74h.45v-8.55h-.53V277l0,1a4.81,4.81,0,0,0-.81-.51,2,2,0,0,0-.91-.19,2.25,2.25,0,0,0-1,.21,2.38,2.38,0,0,0-.81.6,2.86,2.86,0,0,0-.55.95,3.52,3.52,0,0,0-.21,1.25,3.35,3.35,0,0,0,.65,2.21,2.12,2.12,0,0,0,1.72.77,2,2,0,0,0,1-.27Zm-1.77-.38a1.61,1.61,0,0,1-.59-.51,2.3,2.3,0,0,1-.36-.79,3.68,3.68,0,0,1-.13-1,3.05,3.05,0,0,1,.16-1,2.43,2.43,0,0,1,.42-.8,2,2,0,0,1,.63-.54,1.71,1.71,0,0,1,.8-.19,2.05,2.05,0,0,1,.81.16,3,3,0,0,1,.85.57v3.39a4,4,0,0,1-.88.69,1.76,1.76,0,0,1-.91.25,1.6,1.6,0,0,1-.8-.19Zm8,.35a3.77,3.77,0,0,0,.88-.79h0l.06.95H494v-5.71h-.52v4.21a4.67,4.67,0,0,1-.92.89,1.64,1.64,0,0,1-.92.28,1.12,1.12,0,0,1-1-.44,2.32,2.32,0,0,1-.31-1.35v-3.59h-.52v3.66a2.68,2.68,0,0,0,.42,1.66,1.55,1.55,0,0,0,1.3.53,1.9,1.9,0,0,0,1.06-.3Zm6.76.09a3.75,3.75,0,0,0,.82-.54l-.27-.37a2.8,2.8,0,0,1-.69.47,1.91,1.91,0,0,1-.83.19,2,2,0,0,1-1.51-.7,2.52,2.52,0,0,1-.41-.8,3.31,3.31,0,0,1-.15-1,3.11,3.11,0,0,1,.16-1,2.69,2.69,0,0,1,.44-.8,1.92,1.92,0,0,1,.65-.52,1.86,1.86,0,0,1,.82-.18,1.52,1.52,0,0,1,.74.17,2.4,2.4,0,0,1,.61.43l.31-.37a3.52,3.52,0,0,0-.69-.48,2,2,0,0,0-1-.22,2.54,2.54,0,0,0-1,.2,2.39,2.39,0,0,0-.82.59,2.66,2.66,0,0,0-.57.94,3.44,3.44,0,0,0-.22,1.28,3.74,3.74,0,0,0,.2,1.26,2.79,2.79,0,0,0,.54.94,2.61,2.61,0,0,0,.82.58,2.7,2.7,0,0,0,1,.2,2.33,2.33,0,0,0,1-.21Zm4.78-.06a6.68,6.68,0,0,0,.95-.61h0l0,.74h.45v-3.65a3.85,3.85,0,0,0-.09-.86,2.13,2.13,0,0,0-.31-.7,1.62,1.62,0,0,0-.56-.47,1.93,1.93,0,0,0-.84-.17,2.93,2.93,0,0,0-.67.08,4.55,4.55,0,0,0-.59.18,2.9,2.9,0,0,0-.5.24l-.37.24.24.39a4.66,4.66,0,0,1,.77-.44,2.4,2.4,0,0,1,1-.22,1.26,1.26,0,0,1,.69.16,1.1,1.1,0,0,1,.42.41,1.6,1.6,0,0,1,.2.58,4.87,4.87,0,0,1,.05.65,7.73,7.73,0,0,0-2.8.71,1.56,1.56,0,0,0-.88,1.44,1.65,1.65,0,0,0,.13.7,1.26,1.26,0,0,0,.35.49,1.6,1.6,0,0,0,.53.29,2.15,2.15,0,0,0,.64.09,2.21,2.21,0,0,0,1.07-.27Zm-1.45-.25a1.07,1.07,0,0,1-.38-.2.92.92,0,0,1-.26-.35,1.18,1.18,0,0,1-.1-.52,1.16,1.16,0,0,1,.16-.61,1.39,1.39,0,0,1,.53-.48,3.58,3.58,0,0,1,1-.37,10.78,10.78,0,0,1,1.49-.26v1.93a6,6,0,0,1-1,.69,2,2,0,0,1-.95.24,1.49,1.49,0,0,1-.47-.07Zm6.93.46a4.13,4.13,0,0,0,.5-.15l-.14-.43a1.6,1.6,0,0,1-.35.12,1.23,1.23,0,0,1-.36.06,1.08,1.08,0,0,1-.48-.09.65.65,0,0,1-.29-.25,1,1,0,0,1-.15-.38,2.49,2.49,0,0,1,0-.49v-3.72H510v-.46h-1.65v-1.65h-.46l-.07,1.65-.9.05v.41h.89v3.67a3.14,3.14,0,0,0,.07.7,1.43,1.43,0,0,0,.23.55,1.18,1.18,0,0,0,.44.35,1.71,1.71,0,0,0,.69.12,1.76,1.76,0,0,0,.42-.06Zm2.43-.08v-5.71h-.53v5.71Zm.09-7.21a.45.45,0,0,0,.13-.34.46.46,0,0,0-.13-.35.52.52,0,0,0-.34-.12.49.49,0,0,0-.34.12.47.47,0,0,0-.14.35.46.46,0,0,0,.14.34.49.49,0,0,0,.34.13.53.53,0,0,0,.34-.13Zm5.2,7.15a2.4,2.4,0,0,0,.82-.58,2.83,2.83,0,0,0,.56-.94,3.5,3.5,0,0,0,.21-1.26,3.66,3.66,0,0,0-.21-1.28,2.64,2.64,0,0,0-.56-.94,2.3,2.3,0,0,0-.82-.59,2.53,2.53,0,0,0-1-.2,2.4,2.4,0,0,0-1.79.79,2.8,2.8,0,0,0-.56.94,3.91,3.91,0,0,0-.2,1.28,3.74,3.74,0,0,0,.2,1.26,3,3,0,0,0,.56.94,2.61,2.61,0,0,0,.82.58,2.48,2.48,0,0,0,1,.2,2.53,2.53,0,0,0,1-.2Zm-1.77-.45a1.86,1.86,0,0,1-.64-.51,2.54,2.54,0,0,1-.42-.8,3,3,0,0,1-.16-1,3.11,3.11,0,0,1,.16-1,2.65,2.65,0,0,1,.42-.8,1.88,1.88,0,0,1,.64-.52,1.76,1.76,0,0,1,.79-.18,1.8,1.8,0,0,1,.8.18,1.92,1.92,0,0,1,.65.52,3.19,3.19,0,0,1,.42.8,3.39,3.39,0,0,1,.15,1,3.31,3.31,0,0,1-.15,1,3,3,0,0,1-.42.8,1.89,1.89,0,0,1-.65.51,1.69,1.69,0,0,1-.8.19,1.65,1.65,0,0,1-.79-.19Zm5.65.51v-4.3a5.62,5.62,0,0,1,.94-.81,1.74,1.74,0,0,1,.93-.26,1.13,1.13,0,0,1,1,.43,2.41,2.41,0,0,1,.3,1.35v3.59H525v-3.66a2.64,2.64,0,0,0-.41-1.65,1.55,1.55,0,0,0-1.31-.54,2,2,0,0,0-1.06.29,6.41,6.41,0,0,0-.9.73h0l0-.88h-.45v5.71Z" transform="translate(-300 -254.28)"/><path class="cls-1" d="M418.25,322.86v-3l1.54-1.73,2.72,4.7h3.87l-4.55-7.11,4.23-5h-3.89l-3.82,4.79h-.1V305.8h-3.48v17.06Zm14.57-.14a7.36,7.36,0,0,0,1.63-1.11h.1l.24,1.25h2.92V316a5.93,5.93,0,0,0-1.23-4.13,4.63,4.63,0,0,0-3.56-1.32,8.06,8.06,0,0,0-2.71.44,12.4,12.4,0,0,0-2.45,1.14l1.29,2.36a10.65,10.65,0,0,1,1.64-.8,4.23,4.23,0,0,1,1.55-.3,1.82,1.82,0,0,1,1.42.48,2,2,0,0,1,.47,1.28,11.86,11.86,0,0,0-5.18,1.43,3.37,3.37,0,0,0-1.6,3,3.87,3.87,0,0,0,.25,1.43,3.54,3.54,0,0,0,.72,1.16,3.36,3.36,0,0,0,1.13.78,4,4,0,0,0,1.5.28,4.05,4.05,0,0,0,1.87-.43Zm-1.67-2.63a1,1,0,0,1-.37-.86,1.48,1.48,0,0,1,.73-1.22,6.48,6.48,0,0,1,2.62-.77v2.11a4.91,4.91,0,0,1-.92.76,2,2,0,0,1-1,.26,1.66,1.66,0,0,1-1-.28Zm13.1,2.77v-7a3.61,3.61,0,0,1,1.23-1.73,2.65,2.65,0,0,1,1.42-.48,3.43,3.43,0,0,1,.68.05,6.24,6.24,0,0,1,.64.14l.58-3.09a2.63,2.63,0,0,0-.6-.18,4.63,4.63,0,0,0-.83-.06,3.4,3.4,0,0,0-1.85.58,4.58,4.58,0,0,0-1.58,1.83h-.1l-.24-2.12h-2.92v12.07Zm19.51,0a4.71,4.71,0,0,0,1.56-.82,3.38,3.38,0,0,0,.94-1.23,3.56,3.56,0,0,0,.32-1.53,3.28,3.28,0,0,0-.29-1.43,3.19,3.19,0,0,0-.77-1,5,5,0,0,0-1-.69c-.38-.19-.77-.35-1.16-.5l-.89-.33a5.27,5.27,0,0,1-.75-.33,1.78,1.78,0,0,1-.52-.37.72.72,0,0,1-.2-.5c0-.63.46-1,1.36-1a3.19,3.19,0,0,1,1.27.27,6.7,6.7,0,0,1,1.29.75l1.6-2.14a9.8,9.8,0,0,0-1.82-1.06,6.55,6.55,0,0,0-4.33-.19,4.8,4.8,0,0,0-1.46.76,3.33,3.33,0,0,0-.94,1.2,3.56,3.56,0,0,0-.32,1.53,2.79,2.79,0,0,0,.29,1.32,3.25,3.25,0,0,0,.75,1,4.83,4.83,0,0,0,1,.72c.38.19.75.36,1.12.51s.61.25.9.35a5.83,5.83,0,0,1,.79.36,2.15,2.15,0,0,1,.56.42.77.77,0,0,1,.21.52.87.87,0,0,1-.37.76,2,2,0,0,1-1.16.27,4,4,0,0,1-1.54-.32,7.35,7.35,0,0,1-1.58-.95l-1.6,2.24a7.6,7.6,0,0,0,2.17,1.22,7.25,7.25,0,0,0,2.45.46,6.65,6.65,0,0,0,2.14-.31Zm8.8,0v-7a3.49,3.49,0,0,1,1.23-1.73,2.6,2.6,0,0,1,1.42-.48,3.49,3.49,0,0,1,.68.05c.19,0,.4.08.63.14l.59-3.09a2.63,2.63,0,0,0-.6-.18,4.84,4.84,0,0,0-.84-.06,3.43,3.43,0,0,0-1.85.58,4.74,4.74,0,0,0-1.58,1.83h-.1l-.24-2.12H469v12.07Zm12.1-.24a6.48,6.48,0,0,0,1.66-1.44h.08l.26,1.68h2.92V310.79H486v8a4.61,4.61,0,0,1-1,1,2,2,0,0,1-1.14.32,1.34,1.34,0,0,1-1.14-.49,3.09,3.09,0,0,1-.37-1.8v-7h-3.58v7.49a6.25,6.25,0,0,0,.89,3.58,3.23,3.23,0,0,0,2.86,1.29,4.1,4.1,0,0,0,2.13-.53Zm29.52.16a7.79,7.79,0,0,0,2.05-1L515,319.62a4.92,4.92,0,0,1-2.6.8,3.34,3.34,0,0,1-2.06-.62,2.94,2.94,0,0,1-1.08-1.93h7.22a4.71,4.71,0,0,0,.1-.66,9,9,0,0,0,0-.92,8,8,0,0,0-.32-2.3,5.12,5.12,0,0,0-1-1.84,4.38,4.38,0,0,0-1.6-1.21,5.25,5.25,0,0,0-2.25-.44,5.2,5.2,0,0,0-2.12.44,5.6,5.6,0,0,0-1.81,1.25,6.31,6.31,0,0,0-1.28,2,7,7,0,0,0-.48,2.64,7.2,7.2,0,0,0,.46,2.68,5.66,5.66,0,0,0,1.29,2,5.56,5.56,0,0,0,1.94,1.24,6.61,6.61,0,0,0,2.41.43,7.09,7.09,0,0,0,2.23-.37Zm-4.07-9a2.23,2.23,0,0,1,1.5-.56,1.79,1.79,0,0,1,1.56.64,2.71,2.71,0,0,1,.46,1.65h-4.35a2.83,2.83,0,0,1,.83-1.73Z" transform="translate(-300 -254.28)"/><path class="cls-1" d="M453.82,319.37V306h-3.48v13.82c0,1.87.78,3.33,3.45,3.33h1.79v-2.77H455c-.87,0-1.13-.29-1.13-1Z" transform="translate(-300 -254.28)"/><path class="cls-1" d="M499.69,310.67a4.19,4.19,0,0,0-2.14.52,11,11,0,0,0-1.41,1V306h-3.57v17h0v0h3.56v0h0v-8.14a6.69,6.69,0,0,1,1.06-.87,2.21,2.21,0,0,1,1.17-.3,1.29,1.29,0,0,1,1.13.49,3.29,3.29,0,0,1,.35,1.8v7h3.57v-7.49a6.16,6.16,0,0,0-.89-3.57,3.21,3.21,0,0,0-2.85-1.29Z" transform="translate(-300 -254.28)"/></svg>